<?xml version="1.0" encoding="UTF-8" standalone="no"?>
<svg width="68px" height="59px" viewBox="0 0 68 59" version="1.1" xmlns="http://www.w3.org/2000/svg" xmlns:xlink="http://www.w3.org/1999/xlink" xmlns:sketch="http://www.bohemiancoding.com/sketch/ns">
    <!-- Generator: Sketch 3.4 (15575) - http://www.bohemiancoding.com/sketch -->
    <title>Group</title>
    <desc>Created with Sketch.</desc>
    <defs>
        <linearGradient x1="46.7181687%" y1="17.3495416%" x2="58.6289332%" y2="76.4592354%" id="linearGradient-1">
            <stop stop-color="#FFE22F" offset="0%"></stop>
            <stop stop-color="#FFD30E" offset="100%"></stop>
        </linearGradient>
    </defs>
    <g id="design" stroke="none" stroke-width="1" fill="none" fill-rule="evenodd" sketch:type="MSPage">
        <g id="desktop" sketch:type="MSArtboardGroup" transform="translate(-1007.000000, -3164.000000)" fill="url(#linearGradient-1)">
            <g id="Group" sketch:type="MSLayerGroup" transform="translate(1007.000000, 3164.000000)">
                <g id="Shape" sketch:type="MSShapeGroup">
                    <path d="M65.6565113,30.1434961 L62.7788217,30.1434961 L62.7788217,15.7524707 C62.7788217,15.1678956 62.3646523,14.6929284 61.8530312,14.6929284 C61.506218,14.6984432 24.7189407,15.2623376 11.8431429,14.6915497 C10.2839167,14.6219246 6.50623254,14.1855613 5.11468046,11.6301134 C4.2311667,10.0080554 4.5450183,8.01788054 6.04548693,5.71404805 L8.48249446,7.18306871 C7.85049192,8.15230523 7.19627614,9.4882799 7.6627542,10.3444618 C8.19873822,11.3288642 10.2144107,11.8479503 11.9749892,11.9251584 C24.7626507,12.4931889 61.4610749,11.9306732 61.8286683,11.924469 C63.9496745,11.924469 65.6557948,13.640969 65.6557948,15.7517814 L65.6557948,30.1434961 L65.6565113,30.1434961 Z"></path>
                    <path d="M11.5522211,58.1596708 C10.3534226,58.1596708 6.40591468,57.9383871 3.45155359,55.2691952 C1.23022946,53.2604077 0.103803159,50.3830298 0.103803159,46.7170271 L0.103803159,14.796332 C0.0228323113,14.0993917 -0.237277579,10.6236516 2.27210213,7.82210303 C4.3522647,5.49827918 7.68210122,4.32016736 12.1655932,4.32016736 L12.1655932,7.08724803 C8.57278054,7.08724803 5.98457965,7.93446829 4.47192958,9.60547066 C2.58380407,11.6907768 2.96142917,14.4861212 2.9657285,14.5136955 L2.98005963,14.7108517 L2.98005963,46.7170271 C2.98005963,49.5792391 3.79550055,51.7727744 5.4034526,53.2355908 C7.96155813,55.5635508 11.7872515,55.3877647 11.8245124,55.3870753 L61.8523146,55.3843179 C62.3639357,55.3843179 62.7781052,54.9086613 62.7781052,54.3227075 L62.7781052,40.5210827 L65.6557948,40.5210827 L65.6557948,54.3227075 C65.6557948,56.4335199 63.9496745,58.1513986 61.8523146,58.1513986 L11.9097826,58.1513986 C11.8918687,58.1534666 11.7657548,58.1596708 11.5522211,58.1596708 L11.5522211,58.1596708 Z"></path>
                    <path d="M57.6547286,9.68405741 L54.7777555,9.68405741 L54.7777555,8.14747973 C54.7777555,7.56290464 54.3614364,7.08655867 53.8512484,7.08655867 L34.7285139,7.08655867 L34.7285139,4.319478 L53.8512484,4.319478 C55.9486083,4.319478 57.6547286,6.03666732 57.6547286,8.14747973 L57.6547286,9.68405741 L57.6547286,9.68405741 Z"></path>
                    <path d="M59.3981097,9.10775461 C44.1949375,6.1455858 28.9939149,3.18203827 13.7921757,0.219180098 C13.0971162,0.0833766876 12.1462462,0.404617243 12.0229985,1.18565919 C11.5815999,3.98238223 11.1409179,6.77772655 10.6995193,9.57307086 C10.4250782,11.3192132 13.196001,12.0685447 13.4740247,10.3086152 C13.9147068,7.51258155 14.3553888,4.71654787 14.7960709,1.92120356 C14.2063452,2.24313347 13.617336,2.56575274 13.0268937,2.88768265 C28.2286329,5.85054082 43.4325217,8.81339899 58.6328277,11.7755678 C60.4449983,12.1285188 61.2152962,9.46208432 59.3981097,9.10775461 L59.3981097,9.10775461 L59.3981097,9.10775461 Z"></path>
                    <path d="M34.4332927,9.42692709 C29.8487664,8.46113735 25.2656731,7.49465826 20.6818633,6.52886852 C19.944527,6.3737631 19.0925417,6.7315396 18.9126861,7.49465826 C18.6733563,8.51421787 18.4340266,9.53170942 18.1961299,10.5505797 C17.7876929,12.2884497 20.5614818,13.0267515 20.9692023,11.2854347 C21.2085321,10.2679431 21.4471453,9.24976224 21.686475,8.23089198 C21.0960327,8.55213253 20.5070236,8.8747518 19.9165813,9.19668172 C24.4996745,10.1631608 29.0842009,11.1289506 33.6680108,12.0947403 C35.475882,12.4766443 36.2454633,9.80814174 34.4332927,9.42692709 L34.4332927,9.42692709 L34.4332927,9.42692709 Z"></path>
                </g>
                <path d="M64.5100215,41.2007891 L52.6696473,41.2007891 C49.7403657,41.2007891 49.4250809,39.3409028 49.4250809,38.5419375 L49.4250809,31.7779626 C49.4250809,30.9776186 49.7403657,29.1177323 52.6696473,29.1177323 L64.5093049,29.1177323 C67.4364369,29.1177323 67.7524381,30.9776186 67.7524381,31.7779626 L67.7524381,38.5419375 C67.7531547,39.3409028 67.4371534,41.2007891 64.5100215,41.2007891 L64.5100215,41.2007891 Z M52.079205,38.59295 C52.1759401,38.6177668 52.3579454,38.6487879 52.6696473,38.6487879 L64.5093049,38.6487879 C64.8202903,38.6487879 65.0022955,38.6177668 65.0983141,38.59295 C65.0997472,38.5784735 65.0997472,38.5605502 65.0997472,38.5419375 L65.0997472,31.7779626 C65.0997472,31.7593499 65.0997472,31.7414266 65.0983141,31.7255714 C65.0022955,31.7007545 64.8195737,31.6697334 64.5093049,31.6697334 L52.6696473,31.6697334 C52.3572288,31.6697334 52.1759401,31.7007545 52.079205,31.7255714 C52.079205,31.7414266 52.0777719,31.7593499 52.0777719,31.7779626 L52.0777719,38.5419375 C52.0777719,38.5605502 52.079205,38.5777841 52.079205,38.59295 L52.079205,38.59295 Z" id="Shape" sketch:type="MSShapeGroup"></path>
            </g>
        </g>
    </g>
</svg>