<?xml version="1.0" encoding="UTF-8" standalone="no"?>
<svg width="59px" height="50px" viewBox="0 0 59 50" version="1.1" xmlns="http://www.w3.org/2000/svg" xmlns:xlink="http://www.w3.org/1999/xlink" xmlns:sketch="http://www.bohemiancoding.com/sketch/ns">
    <!-- Generator: Sketch 3.4 (15575) - http://www.bohemiancoding.com/sketch -->
    <title>Shape</title>
    <desc>Created with Sketch.</desc>
    <defs>
        <linearGradient x1="46.7181687%" y1="17.3495416%" x2="58.6289332%" y2="76.4592354%" id="linearGradient-1">
            <stop stop-color="#FFE22F" offset="0%"></stop>
            <stop stop-color="#FFD30E" offset="100%"></stop>
        </linearGradient>
    </defs>
    <g id="design" stroke="none" stroke-width="1" fill="none" fill-rule="evenodd" sketch:type="MSPage">
        <g id="desktop" sketch:type="MSArtboardGroup" transform="translate(-381.000000, -3506.000000)" fill="url(#linearGradient-1)">
            <path d="M410.25,3506 C406.711164,3506 403.811,3508.9018 403.811,3512.4439 C403.811,3513.17568 403.925341,3513.8609 404.153205,3514.50039 L387.666948,3526.63355 L385.771347,3526.63355 C383.304861,3526.63355 381.25,3528.69004 381.25,3531.15816 L381.25,3550.48904 C381.25,3552.95635 383.304861,3555.01448 385.771347,3555.01448 L434.728653,3555.01448 C437.195139,3555.01448 439.25,3552.95635 439.25,3550.48904 L439.25,3531.15816 C439.25,3528.69004 437.194322,3526.63355 434.728653,3526.63355 L432.833868,3526.63355 L416.346795,3514.49958 C416.574659,3513.86009 416.689816,3513.17405 416.689816,3512.44308 C416.689816,3508.9018 413.789653,3506 410.25,3506 L410.25,3506 L410.25,3506 Z M410.25,3509.86144 C411.689056,3509.86144 412.83001,3511.00403 412.83001,3512.4439 C412.83001,3513.90664 411.689056,3515.02636 410.25,3515.02636 C408.811761,3515.02636 407.66999,3513.90664 407.66999,3512.4439 C407.66999,3511.00403 408.811761,3509.86144 410.25,3509.86144 L410.25,3509.86144 L410.25,3509.86144 Z M406.436747,3517.63087 C407.509913,3518.43044 408.834629,3518.91067 410.25,3518.91067 C411.665371,3518.91067 412.990087,3518.43044 414.063253,3517.63087 L426.279712,3526.63355 L394.220288,3526.63355 L406.436747,3517.63087 L406.436747,3517.63087 Z M385.771347,3530.51867 L388.329306,3530.51867 L432.102906,3530.51867 L434.728653,3530.51867 C435.140278,3530.51867 435.39101,3530.77022 435.39101,3531.15898 L435.39101,3550.48986 C435.39101,3550.90149 435.140278,3551.15385 434.728653,3551.15385 L385.771347,3551.15385 C385.360538,3551.15385 385.10899,3550.90149 385.10899,3550.48986 L385.10899,3531.15816 C385.10899,3530.77022 385.360538,3530.51867 385.771347,3530.51867 L385.771347,3530.51867 L385.771347,3530.51867 Z" id="Shape" sketch:type="MSShapeGroup"></path>
        </g>
    </g>
</svg>