<?xml version="1.0" encoding="UTF-8" standalone="no"?>
<svg width="23px" height="73px" viewBox="0 0 23 73" version="1.1" xmlns="http://www.w3.org/2000/svg" xmlns:xlink="http://www.w3.org/1999/xlink" xmlns:sketch="http://www.bohemiancoding.com/sketch/ns">
    <!-- Generator: Sketch 3.4 (15575) - http://www.bohemiancoding.com/sketch -->
    <title>Group Copy</title>
    <desc>Created with Sketch.</desc>
    <defs>
        <linearGradient x1="46.7181687%" y1="17.3495416%" x2="58.6289332%" y2="76.4592354%" id="linearGradient-1">
            <stop stop-color="#FFE22F" offset="0%"></stop>
            <stop stop-color="#FFD30E" offset="100%"></stop>
        </linearGradient>
    </defs>
    <g id="design" stroke="none" stroke-width="1" fill="none" fill-rule="evenodd" sketch:type="MSPage">
        <g id="desktop" sketch:type="MSArtboardGroup" transform="translate(-729.000000, -3497.000000)" fill="url(#linearGradient-1)">
            <g id="Group-Copy" sketch:type="MSLayerGroup" transform="translate(729.000000, 3497.000000)">
                <path d="M11.5009974,18.08575 C15.6613571,18.08575 19.046699,14.8266842 19.046699,10.8193684 C19.046699,6.81205263 15.6613571,3.55202632 11.5009974,3.55202632 C7.34063776,3.55202632 3.95529592,6.81205263 3.95529592,10.8193684 C3.95529592,14.8257237 7.33964031,18.08575 11.5009974,18.08575 L11.5009974,18.08575 Z M11.5009974,6.14160526 C14.179148,6.14160526 16.3575765,8.24035526 16.3575765,10.8193684 C16.3575765,13.3983816 14.179148,15.4961711 11.5009974,15.4961711 C8.82284694,15.4961711 6.64441837,13.3974211 6.64441837,10.8193684 C6.64342092,8.24035526 8.82184949,6.14160526 11.5009974,6.14160526 L11.5009974,6.14160526 Z" id="Shape" sketch:type="MSShapeGroup"></path>
                <path d="M15.1606378,24.1418684 L15.1606378,21.0288026 C19.5563954,19.5620789 22.7262883,15.5451579 22.7262883,10.8193684 C22.7262883,4.85834211 17.6901684,0.00864473684 11.5,0.00864473684 C5.30883418,0.00864473684 0.272714286,4.85834211 0.272714286,10.8193684 C0.272714286,15.5451579 3.44260714,19.5630395 7.83936224,21.0288026 L7.83936224,24.1409079 C6.368125,24.6970526 5.03353827,25.5740132 3.96826276,26.7429737 C2.0651301,28.8282763 1.187375,31.6051579 1.55643112,34.3455395 L5.53625255,66.3685263 L8.23435204,66.3685263 L8.23435204,72.9913553 L14.765648,72.9913553 L14.765648,66.3685263 L17.4637474,66.3685263 L21.4405765,34.3589868 C21.812625,31.6051579 20.9338724,28.8292368 19.0307398,26.7429737 C17.9664617,25.5749737 16.6308776,24.6980132 15.1606378,24.1418684 L15.1606378,24.1418684 Z M12.077523,70.4027368 L10.9244719,70.4027368 L10.9244719,66.5596711 L12.077523,66.5596711 L12.077523,70.4027368 L12.077523,70.4027368 Z M2.96183673,10.8193684 C2.96183673,6.28568421 6.79204082,2.59726316 11.5,2.59726316 C16.2079592,2.59726316 20.0371658,6.28568421 20.0371658,10.8193684 C20.0371658,14.4799342 17.5395536,17.5862763 14.1013469,18.6486184 L13.5008827,18.7878947 C12.8176301,18.9463816 12.2271403,19.0232237 11.6416378,19.03475 C11.5937602,19.0357105 11.5478776,19.0414737 11.5,19.0414737 C11.4521224,19.0414737 11.4062398,19.0357105 11.3583622,19.03475 C10.7728597,19.0232237 10.1813724,18.9463816 9.49911735,18.7878947 L8.89865306,18.6486184 C5.46044643,17.5862763 2.96183673,14.4799342 2.96183673,10.8193684 L2.96183673,10.8193684 Z M10.5284847,21.5830263 C10.8496633,21.6099211 11.1718393,21.6300921 11.5,21.6300921 C11.8281607,21.6300921 12.1503367,21.6089605 12.4715153,21.5830263 L12.4715153,23.5108026 C12.1503367,23.4810263 11.8261658,23.4608553 11.5,23.4608553 C11.1738342,23.4608553 10.8496633,23.4810263 10.5284847,23.5108026 L10.5284847,21.5830263 L10.5284847,21.5830263 Z M18.773398,34.0381711 L15.0778495,63.7789474 L7.92314796,63.7789474 L4.22460714,34.0247237 C3.95230357,32.0095395 4.59565816,29.9780263 5.98809694,28.45175 C6.80500765,27.5565395 7.8363699,26.8937763 8.97246429,26.4913158 L9.54400255,26.3376316 C10.1903495,26.1647368 10.737949,26.0811711 11.2765714,26.061 C11.3513801,26.0590789 11.4241939,26.0494737 11.4990026,26.0494737 C11.5738112,26.0494737 11.6476224,26.0590789 11.7214337,26.061 C12.2610536,26.0821316 12.8076556,26.1647368 13.4540026,26.3376316 L14.0245434,26.4903553 C15.1606378,26.8928158 16.1929974,27.5565395 17.0099082,28.45175 C18.4043418,29.9780263 19.0476964,32.0105 18.773398,34.0381711 L18.773398,34.0381711 Z" id="Shape" sketch:type="MSShapeGroup"></path>
            </g>
        </g>
    </g>
</svg>