<?xml version="1.0" encoding="UTF-8" standalone="no"?>
<svg width="54px" height="61px" viewBox="0 0 54 61" version="1.1" xmlns="http://www.w3.org/2000/svg" xmlns:xlink="http://www.w3.org/1999/xlink" xmlns:sketch="http://www.bohemiancoding.com/sketch/ns">
    <!-- Generator: Sketch 3.4 (15575) - http://www.bohemiancoding.com/sketch -->
    <title>noun_12486</title>
    <desc>Created with Sketch.</desc>
    <defs>
        <linearGradient x1="46.7181687%" y1="17.3495416%" x2="58.6289332%" y2="76.4592354%" id="linearGradient-1">
            <stop stop-color="#FFE22F" offset="0%"></stop>
            <stop stop-color="#FFD30E" offset="100%"></stop>
        </linearGradient>
    </defs>
    <g id="design" stroke="none" stroke-width="1" fill="none" fill-rule="evenodd" sketch:type="MSPage">
        <g id="desktop" sketch:type="MSArtboardGroup" transform="translate(-387.000000, -3165.000000)" fill="url(#linearGradient-1)">
            <g id="noun_12486" sketch:type="MSLayerGroup" transform="translate(387.000000, 3165.000000)">
                <path d="M16.1047239,43.9322072 C17.8232121,48.5354753 21.8285448,51.8012963 26.8269222,51.8012963 C31.8268783,51.8012963 35.8282641,48.5354753 37.5483311,43.9322072 L16.1047239,43.9322072 L16.1047239,43.9322072 Z" id="Shape" sketch:type="MSShapeGroup"></path>
                <path d="M21.4670071,28.7576439 C21.4670071,30.930168 19.7871987,32.6921884 17.7142772,32.6921884 C15.6413557,32.6921884 13.9615473,30.930168 13.9615473,28.7576439 C13.9615473,26.5851198 15.6413557,24.8230994 17.7142772,24.8230994 C19.7871987,24.8230994 21.4670071,26.5851198 21.4670071,28.7576439" id="Shape" sketch:type="MSShapeGroup"></path>
                <path d="M39.6938759,28.7576439 C39.6938759,30.930168 38.0140675,32.6921884 35.9403566,32.6921884 C33.8674351,32.6921884 32.1876266,30.930168 32.1876266,28.7576439 C32.1876266,26.5851198 33.8674351,24.8230994 35.9403566,24.8230994 C38.0140675,24.8230994 39.6938759,26.5851198 39.6938759,28.7576439" id="Shape" sketch:type="MSShapeGroup"></path>
                <path d="M51.7225041,37.4907768 C50.7570879,37.3153196 49.4396066,36.7790166 48.1765927,35.7593786 C47.2324899,47.2485135 38.027487,56.298628 26.8269222,56.298628 C15.2095628,56.298628 5.74406334,46.5574439 5.41489035,34.4591747 C4.18581999,35.3033554 2.87939003,35.8098639 1.85240189,36.0225644 C1.71504913,36.0498761 1.57532822,36.0639458 1.43876485,36.0639458 C1.35193264,36.0639458 1.26983674,36.0358064 1.18695146,36.0242196 C2.26051324,49.8894751 13.3237253,60.7951321 26.8269222,60.7951321 C39.8446482,60.7951321 50.5976324,50.659997 52.3129631,37.5056741 C52.2442867,37.514778 52.1724528,37.5255372 52.1014083,37.5255372 C51.9743175,37.5255372 51.8503843,37.5131228 51.7225041,37.4907768" id="Shape" sketch:type="MSShapeGroup"></path>
                <path d="M15.0437923,9.83392477 C14.3507134,8.24818912 13.9197099,6.57472487 13.9931226,4.97078139 C9.02316307,5.89689736 3.84638502,9.91917048 1.46955081,14.6813432 C1.08275282,15.4576585 0.770156885,16.2530092 0.544393157,17.0582915 C-0.472333,20.6866135 0.59886063,28.6169471 1.15142919,32.1062277 C1.22484187,32.57301 1.28878195,32.9661334 1.34009189,33.2516651 C1.3977169,33.599269 1.4363967,33.799555 1.43718608,33.8152799 L1.44192238,33.8152799 C1.6005885,33.7830024 3.87717098,33.2698729 5.49777564,31.4855065 C5.75827225,31.1983195 6.00771748,30.8912694 6.22085107,30.533734 C6.92656007,29.365123 7.32440943,27.8017333 7.00076213,25.7235589 C6.98260631,25.6043804 6.98102754,25.4843743 6.9683974,25.3643682 C6.94708404,25.153323 6.91787685,24.9447607 6.91077239,24.7353708 C6.83341279,22.4262881 7.72620572,20.0882384 9.4810056,18.0597216 C10.3540639,17.0516704 11.3897353,16.1843161 12.5138176,15.4957294 C13.952864,14.6143053 15.5395252,14.0283446 17.1277651,13.7899876 C17.1846008,13.760193 17.2430151,13.7328813 17.2998508,13.7030867 C16.4638935,12.5642703 15.6547752,11.2392375 15.0437923,9.83392477" id="Shape" sketch:type="MSShapeGroup"></path>
                <path d="M53.0447218,18.0100639 C50.9512763,12.3830197 47.4740413,7.92044834 42.414092,4.36909567 C37.1007506,0.638147684 26.3098759,0.268197873 25.8544015,0.254955821 C25.5252285,0.243369026 25.2110538,0.238403257 24.9055624,0.238403257 C21.0249523,0.238403257 18.42788,1.02547769 17.1135562,2.55576226 C16.7543867,2.97371451 16.4733661,3.43470342 16.3083849,3.96355785 C16.2286571,4.2201226 16.1781366,4.48579125 16.1497188,4.75890856 C16.0052616,6.03759416 16.3667993,7.47849488 16.9825185,8.88215233 C17.1751282,9.32327817 17.392998,9.76026586 17.6250768,10.187322 C18.0671317,10.9901214 18.5676009,11.7548499 19.075964,12.440126 C19.1620068,12.5551663 19.248839,12.6644133 19.3333031,12.7744878 C19.9742826,13.6037713 20.6105259,14.2964961 21.1425704,14.7624508 C21.2578205,14.8642491 21.3683342,14.9602539 21.4733222,15.0397062 C22.112723,15.5271793 23.8643653,16.6651681 26.3256636,16.6651681 C27.4331688,16.6651681 28.5564618,16.4367427 29.6639671,15.9815472 C32.2823527,14.9097686 34.0537296,14.4330548 35.4051544,14.4330548 C36.2332179,14.4330548 36.8686718,14.6052014 37.5451736,14.7856244 L38.1711548,14.9478395 C38.3574493,14.9950143 38.5263774,15.0587417 38.7063569,15.1100546 C43.3684568,16.4946766 45.2448218,20.3241124 45.9576352,23.7082842 C46.2023442,24.8752399 46.3112791,25.9883999 46.3507483,26.9294132 C46.4581045,29.5058198 47.2277536,31.3671557 48.2160619,32.6739806 C49.4585518,34.3184779 51.0460023,35.0823787 52.0935145,35.2727332 L52.1021977,35.2727332 C52.1061446,35.2727332 52.1258792,35.2694227 52.1314049,35.2503872 C52.2632319,34.632149 52.4037422,33.9088019 52.5426738,33.1217275 C53.388893,28.403419 54.2319548,21.2071917 53.0447218,18.0100639" id="Shape" sketch:type="MSShapeGroup"></path>
            </g>
        </g>
    </g>
</svg>