<?xml version="1.0" encoding="UTF-8" standalone="no"?>
<svg width="74px" height="50px" viewBox="0 0 74 50" version="1.1" xmlns="http://www.w3.org/2000/svg" xmlns:xlink="http://www.w3.org/1999/xlink" xmlns:sketch="http://www.bohemiancoding.com/sketch/ns">
    <!-- Generator: Sketch 3.4 (15575) - http://www.bohemiancoding.com/sketch -->
    <title>Group</title>
    <desc>Created with Sketch.</desc>
    <defs>
        <linearGradient x1="46.7181687%" y1="17.3495416%" x2="58.6289332%" y2="76.4592354%" id="linearGradient-1">
            <stop stop-color="#FFE22F" offset="0%"></stop>
            <stop stop-color="#FFD30E" offset="100%"></stop>
        </linearGradient>
    </defs>
    <g id="design" stroke="none" stroke-width="1" fill="none" fill-rule="evenodd" sketch:type="MSPage">
        <g id="desktop" sketch:type="MSArtboardGroup" transform="translate(-998.000000, -3506.000000)" fill="url(#linearGradient-1)">
            <g id="Group" sketch:type="MSLayerGroup" transform="translate(998.000000, 3506.000000)">
                <path d="M72.6,1.58 C69.329,0.612 65.911,0.142 62.149,0.142 C55.92,0.142 49.669,1.46 43.623,2.734 C37.727,3.977 31.631,5.262 25.715,5.262 C22.246,5.262 19.106,4.832 16.116,3.947 C15.662,3.815 15.172,3.902 14.793,4.184 C14.414,4.467 14.19,4.913 14.19,5.386 L14.19,11.966 C12.475,11.711 10.824,11.335 9.231,10.807 C8.773,10.656 8.271,10.733 7.881,11.015 C7.49,11.297 7.259,11.749 7.259,12.231 L7.259,19.295 C5.544,19.04 3.894,18.664 2.3,18.136 C1.844,17.985 1.34,18.062 0.95,18.344 C0.559,18.626 0.328,19.078 0.328,19.56 L0.328,46.112 C0.328,46.734 0.712,47.292 1.294,47.513 C5.435,49.091 9.897,49.858 14.936,49.858 L14.939,49.858 C20.096,49.858 25.281,49.062 30.295,48.294 C35.2,47.541 40.271,46.764 45.2,46.764 C49.87,46.764 53.984,47.466 57.777,48.911 C58.236,49.088 58.756,49.025 59.163,48.745 C59.569,48.465 59.811,48.003 59.811,47.51 L59.811,40.173 C61.508,40.52 63.138,40.983 64.708,41.581 C65.169,41.758 65.687,41.694 66.094,41.415 C66.5,41.135 66.742,40.673 66.742,40.18 L66.742,32.459 C68.454,32.757 70.099,33.17 71.687,33.715 C72.145,33.872 72.651,33.797 73.045,33.517 C73.439,33.236 73.673,32.781 73.673,32.296 L73.673,3.019 C73.674,2.354 73.236,1.769 72.6,1.58 L72.6,1.58 Z M56.811,45.406 C53.247,44.302 49.426,43.763 45.2,43.763 C40.042,43.763 34.856,44.559 29.84,45.327 C24.937,46.079 19.866,46.857 14.938,46.857 L14.935,46.857 C10.661,46.857 6.852,46.268 3.327,45.059 L3.327,21.57 C4.603,21.906 5.913,22.156 7.259,22.338 L7.259,38.782 C7.259,39.404 7.643,39.962 8.225,40.183 C12.366,41.761 16.828,42.528 21.869,42.528 L21.871,42.528 C27.029,42.528 32.214,41.733 37.228,40.964 C42.132,40.212 47.203,39.434 52.133,39.434 C53.758,39.434 55.312,39.525 56.812,39.697 L56.812,45.406 L56.811,45.406 Z M63.742,38.075 C60.178,36.971 56.358,36.432 52.132,36.432 C46.973,36.432 41.787,37.228 36.772,37.997 C31.869,38.749 26.799,39.526 21.87,39.526 L21.868,39.526 C17.593,39.526 13.783,38.937 10.259,37.728 L10.259,14.24 C11.535,14.576 12.845,14.826 14.191,15.008 L14.191,32.008 C14.191,32.649 14.598,33.219 15.205,33.427 C19.087,34.758 23.231,35.406 27.874,35.406 C33.349,35.405 38.853,34.504 44.175,33.632 C49.379,32.779 54.761,31.898 59.992,31.898 C61.285,31.898 62.53,31.958 63.743,32.067 L63.743,38.075 L63.742,38.075 Z M70.674,30.26 C67.367,29.344 63.852,28.897 59.991,28.897 C54.515,28.897 49.012,29.799 43.688,30.671 C38.484,31.524 33.103,32.404 27.872,32.405 C23.971,32.405 20.464,31.917 17.189,30.917 L17.189,7.332 C19.876,7.957 22.684,8.262 25.714,8.262 C31.943,8.262 38.194,6.944 44.24,5.67 C50.136,4.427 56.232,3.142 62.148,3.142 C65.205,3.142 68.005,3.476 70.673,4.16 L70.673,30.26 L70.674,30.26 Z" id="Shape" sketch:type="MSShapeGroup"></path>
                <path d="M27.682,18.895 C26.7,18.802 26.168,18.669 26.168,18.362 C26.168,17.815 27.152,17.757 27.575,17.744 C28.289,17.729 28.978,18.032 29.174,18.337 C29.251,18.457 29.328,18.578 29.405,18.698 C30.127,18.332 30.849,17.95 31.571,17.555 C31.496,17.412 31.421,17.269 31.346,17.127 C30.75,15.991 29.741,15.648 28.902,15.508 L28.902,14.409 C28.061,14.454 27.22,14.479 26.379,14.481 L26.379,15.565 C24.651,15.897 23.597,16.843 23.597,18.26 C23.597,20.736 26,21.141 27.432,21.254 C28.194,21.334 29.102,21.486 29.102,21.902 C29.102,22.656 27.79,22.736 27.527,22.733 C26.673,22.745 25.826,22.317 25.601,21.792 C25.536,21.641 25.471,21.49 25.406,21.339 C24.627,21.634 23.847,21.906 23.068,22.152 C23.134,22.306 23.199,22.461 23.265,22.615 C23.795,23.858 24.892,24.727 26.379,24.996 L26.379,26.16 C27.22,26.176 28.061,26.167 28.902,26.139 L28.902,24.913 C30.597,24.561 31.744,23.254 31.744,21.721 C31.745,19.147 29.203,19.063 27.682,18.895 L27.682,18.895 Z" id="Shape" sketch:type="MSShapeGroup"></path>
            </g>
        </g>
    </g>
</svg>