<?xml version="1.0" encoding="UTF-8" standalone="no"?>
<svg width="58px" height="78px" viewBox="0 0 58 78" version="1.1" xmlns="http://www.w3.org/2000/svg" xmlns:xlink="http://www.w3.org/1999/xlink" xmlns:sketch="http://www.bohemiancoding.com/sketch/ns">
    <!-- Generator: Sketch 3.4 (15575) - http://www.bohemiancoding.com/sketch -->
    <title>Group</title>
    <desc>Created with Sketch.</desc>
    <defs>
        <linearGradient x1="46.7181687%" y1="17.3495416%" x2="58.6289332%" y2="76.4592354%" id="linearGradient-1">
            <stop stop-color="#FFE22F" offset="0%"></stop>
            <stop stop-color="#FFD30E" offset="100%"></stop>
        </linearGradient>
    </defs>
    <g id="design" stroke="none" stroke-width="1" fill="none" fill-rule="evenodd" sketch:type="MSPage">
        <g id="desktop" sketch:type="MSArtboardGroup" transform="translate(-715.000000, -3152.000000)" fill="url(#linearGradient-1)">
            <g id="Group" sketch:type="MSLayerGroup" transform="translate(715.000000, 3152.000000)">
                <path d="M36.2660872,50.715564 C35.4737849,49.0990116 34.8065349,48.3678663 33.9649419,48.1926105 C33.1826802,48.0301337 32.1512267,48.1889593 30.7227093,48.4098547 C25.8328895,49.1638198 20.9038198,49.5097674 19.0563314,44.8262384 C18.1389767,42.4995349 18.0531744,38.9341744 27.8583721,34.8412209 C28.844186,34.4304651 29.1755291,34.2917209 29.4858779,33.933907 C30.8039477,32.4122849 29.2914535,29.7378081 28.4361686,28.4745058 C28.6013837,28.2654767 28.8387093,27.9989419 29.0303953,27.784436 C30.3630698,26.2975 32.8422093,23.5290058 30.6204767,19.6952849 C29.8163081,18.3069302 27.6785523,17.9956686 24.1369244,17.4781163 C20.6993547,16.9760814 15.5055756,16.2175523 14.3034302,14.2322326 C9.99505814,7.12524419 3.35815698,1.38561628 3.07701744,1.14372674 C2.41706977,0.577796512 1.4230407,0.652645349 0.856197674,1.31259302 C0.289354651,1.97345349 0.365116279,2.96656977 1.02506395,3.53432558 C1.08987209,3.59000581 7.55881977,9.18267442 11.6097849,15.8661279 C13.5823256,19.119314 19.1832093,19.9380872 23.6832674,20.5952965 C25.2459651,20.8234942 27.3545116,21.1311047 27.989814,21.4432791 C28.8213663,23.017843 28.186064,24.0082209 26.6845233,25.6841047 C25.7662558,26.7100814 24.378814,28.2590872 25.5964767,29.9121512 C26.1770116,30.6998895 26.5384767,31.4228198 26.7182965,31.9065988 C26.694564,31.9166395 26.6699186,31.9266802 26.646186,31.9367209 C24.9301395,32.6523488 21.7371977,33.985936 19.1987267,36.1218663 C14.8794012,39.755686 15.1450233,43.4908256 16.1280988,45.9827442 C19.053593,53.3991686 27.2604942,52.1313023 31.2046628,51.5233837 C31.8217093,51.4284535 32.5510291,51.3161802 32.9946453,51.2805814 C33.7486105,52.4480407 35.3624244,56.4688837 35.2711453,59.4674012 C35.2410233,60.4714709 35.0128256,61.2163081 34.6276279,61.565907 C32.2132965,63.7602558 29.045,65.0838023 25.9807616,66.3635349 C21.099157,68.4027093 16.0514244,70.5121686 16.1116686,76.1778605 C16.1217093,77.0422733 16.8245581,77.7359942 17.6871453,77.7359942 L17.7044884,77.7359942 C18.5734651,77.7268663 19.27175,77.0139767 19.2626221,76.1440872 C19.2261105,72.7658488 22.1050523,71.3966628 27.195686,69.2698605 C30.3521163,67.9527035 33.929343,66.4566395 36.7462151,63.8980872 C38.028686,62.7324535 39.2408721,60.1866802 37.7375058,54.6789012 C37.3513953,53.2732035 36.8301919,51.8647674 36.2660872,50.715564 L36.2660872,50.715564 Z" id="Shape" sketch:type="MSShapeGroup"></path>
                <path d="M35.0739826,33.985936 C35.398936,33.985936 35.7257151,33.8791395 35.9986395,33.659157 L49.3171686,22.9146977 C49.9506453,22.4035349 50.0510523,21.4752267 49.5389767,20.84175 C49.027814,20.209186 48.0995058,20.1087791 47.4660291,20.6208547 L34.1475,31.3644012 C33.5140233,31.875564 33.4136163,32.8038721 33.9256919,33.4373488 C34.2159593,33.7979012 34.6431453,33.985936 35.0739826,33.985936 L35.0739826,33.985936 Z" id="Shape" sketch:type="MSShapeGroup"></path>
                <path d="M36.9716744,36.9579826 C36.1748081,37.1231977 35.6618198,37.9036337 35.8270349,38.7005 C35.9712558,39.3969593 36.5846512,39.8761744 37.2692442,39.8761744 C37.3678256,39.8761744 37.4691453,39.8652209 37.5695523,39.8460523 L50.3048081,37.204436 C51.1016744,37.0392209 51.6146628,36.2587849 51.4485349,35.4619186 C51.2833198,34.6641395 50.5019709,34.1511512 49.7060174,34.3172791 L36.9716744,36.9579826 L36.9716744,36.9579826 Z" id="Shape" sketch:type="MSShapeGroup"></path>
                <path d="M56.7701047,47.5153198 L38.2751395,43.6377849 C37.4773605,43.471657 36.6969244,43.981907 36.5298837,44.7787733 C36.3619302,45.5756395 36.873093,46.3569884 37.6699593,46.5240291 L56.1649244,50.401564 C56.267157,50.4225581 56.3693895,50.4335116 56.4688837,50.4335116 C57.1516512,50.4335116 57.7650465,49.9561221 57.911093,49.2605756 C58.0781337,48.4637093 57.5669709,47.6823605 56.7701047,47.5153198 L56.7701047,47.5153198 Z" id="Shape" sketch:type="MSShapeGroup"></path>
            </g>
        </g>
    </g>
</svg>