<svg width="68" height="59" viewBox="0 0 68 59" xmlns="http://www.w3.org/2000/svg"><title>Group</title><defs><linearGradient x1="46.718%" y1="17.35%" x2="58.629%" y2="76.459%" id="a"><stop stop-color="#FFE22F" offset="0%"/><stop stop-color="#FFD30E" offset="100%"/></linearGradient></defs><g transform="translate(-1007 -3164)" fill="url(#a)" fill-rule="evenodd"><path d="M1072.657 3194.143h-2.878v-14.39c0-.585-.42-1.06-.93-1.06-.35.005-37.14.57-50.01 0-1.56-.07-5.34-.507-6.73-3.063-.888-1.622-.57-3.612.93-5.916l2.433 1.47c-.63.968-1.286 2.304-.82 3.16.537.985 2.552 1.504 4.313 1.58 12.79.57 49.486.007 49.854 0a3.824 3.824 0 0 1 3.827 3.828v14.39z"/><path d="M1018.552 3222.16c-1.2 0-5.146-.222-8.1-2.89-2.222-2.01-3.348-4.887-3.348-8.553v-31.92c-.08-.698-.34-4.173 2.168-6.975 2.08-2.324 5.41-3.502 9.894-3.502v2.767c-3.593 0-6.18.847-7.694 2.518-1.888 2.086-1.51 4.88-1.506 4.91l.014.196v32.01c0 2.86.816 5.06 2.423 6.52 2.56 2.33 6.384 2.15 6.422 2.15h50.027c.512 0 .926-.472.926-1.06v-13.8h2.878v13.803c0 2.11-1.706 3.828-3.804 3.828h-49.942a5.383 5.383 0 0 1-.358.01zm46.103-48.476h-2.877v-1.537c0-.584-.417-1.06-.927-1.06h-19.12v-2.768h19.12a3.82 3.82 0 0 1 3.81 3.82v1.535z"/><path d="M1066.398 3173.108c-15.203-2.962-30.404-5.926-45.606-8.89-.695-.135-1.646.187-1.77.968-.44 2.796-.88 5.592-1.322 8.387-.275 1.746 2.496 2.496 2.774.736.44-2.8.88-5.6 1.322-8.39l-1.77.96 45.607 8.89c1.812.35 2.582-2.316.765-2.67z"/><path d="M1041.433 3173.427l-13.75-2.898c-.738-.16-1.59.2-1.77.96-.24 1.02-.48 2.033-.717 3.052-.408 1.737 2.365 2.476 2.773.734.24-1.017.47-2.035.71-3.054l-1.77.968 13.75 2.9c1.81.38 2.576-2.288.764-2.67zm30.077 31.773h-11.84c-2.93 0-3.245-1.86-3.245-2.658v-6.764c0-.8.315-2.66 3.245-2.66h11.84c2.926 0 3.242 1.86 3.242 2.66v6.764c0 .8-.315 2.66-3.242 2.66zm-12.43-2.607c.096.025.278.056.59.056h11.84c.31 0 .492-.04.588-.06a.37.37 0 0 0 .002-.05v-6.77c0-.02 0-.038-.002-.05a2.42 2.42 0 0 0-.59-.058h-11.838c-.313 0-.494.03-.59.055l-.002.052v6.813z"/></g></svg>