<svg width="59" height="50" viewBox="0 0 59 50" xmlns="http://www.w3.org/2000/svg"><title>Shape</title><defs><linearGradient x1="46.718%" y1="17.35%" x2="58.629%" y2="76.459%" id="a"><stop stop-color="#FFE22F" offset="0%"/><stop stop-color="#FFD30E" offset="100%"/></linearGradient></defs><path d="M410.25 3506c-3.54 0-6.44 2.902-6.44 6.444 0 .732.115 1.417.343 2.056l-16.486 12.134h-1.896c-2.463 0-4.52 2.056-4.52 4.524v19.33c0 2.468 2.057 4.526 4.52 4.526h48.96c2.467 0 4.52-2.058 4.52-4.525v-19.334c0-2.468-2.054-4.524-4.52-4.524h-1.894l-16.487-12.134c.227-.64.342-1.327.342-2.058 0-3.54-2.9-6.443-6.44-6.443zm0 3.86c1.44 0 2.58 1.144 2.58 2.584a2.55 2.55 0 0 1-2.58 2.582 2.55 2.55 0 0 1-2.58-2.582 2.564 2.564 0 0 1 2.58-2.583zm-3.813 7.77a6.382 6.382 0 0 0 3.813 1.28 6.38 6.38 0 0 0 3.813-1.28l12.217 9.004h-32.06l12.217-9.003zm-20.666 12.89h48.96c.41 0 .66.25.66.64v19.33c0 .41-.25.664-.66.664h-48.96c-.41 0-.66-.253-.66-.664v-19.332c0-.388.25-.64.66-.64z" transform="translate(-381 -3506)" fill="url(#a)" fill-rule="evenodd"/></svg>