<svg width="23" height="73" viewBox="0 0 23 73" xmlns="http://www.w3.org/2000/svg"><title>Group Copy</title><defs><linearGradient x1="46.718%" y1="17.35%" x2="58.629%" y2="76.459%" id="a"><stop stop-color="#FFE22F" offset="0%"/><stop stop-color="#FFD30E" offset="100%"/></linearGradient></defs><g transform="translate(-729 -3497)" fill="url(#a)" fill-rule="evenodd"><path d="M740.5 3515.086c4.16 0 7.547-3.26 7.547-7.267 0-4.01-3.386-7.27-7.546-7.27s-7.54 3.26-7.54 7.26 3.39 7.266 7.55 7.266zm0-11.944c2.68 0 4.858 2.098 4.858 4.677 0 2.57-2.18 4.67-4.857 4.67s-4.85-2.1-4.85-4.68c0-2.58 2.18-4.678 4.86-4.678z"/><path d="M744.16 3521.142v-3.113c4.396-1.47 7.566-5.49 7.566-10.21 0-5.97-5.036-10.81-11.226-10.81-6.19 0-11.227 4.84-11.227 10.81 0 4.72 3.17 8.74 7.566 10.21v3.11a10.004 10.004 0 0 0-3.88 2.6c-1.904 2.08-2.78 4.86-2.41 7.6l3.98 32.02h2.7v6.62h6.53v-6.62h2.7l3.98-32.01c.37-2.755-.51-5.53-2.41-7.617a10.008 10.008 0 0 0-3.87-2.6zm-3.082 46.26h-1.154v-3.842h1.154v3.843zm-9.116-59.583c0-4.54 3.83-8.23 8.538-8.23s8.537 3.69 8.537 8.22c0 3.66-2.497 6.766-5.936 7.83l-.6.14a8.834 8.834 0 0 1-1.85.246c-.05 0-.093.006-.14.006-.048 0-.094-.005-.14-.006a8.826 8.826 0 0 1-1.86-.245l-.6-.14c-3.44-1.06-5.938-4.167-5.938-7.83zm7.566 10.76c.322.02.644.04.972.04.328 0 .65-.02.972-.047v1.927c-.322-.03-.646-.05-.972-.05-.326 0-.65.02-.972.05v-1.926zm8.245 12.45l-3.695 29.74h-7.155l-3.698-29.754a6.886 6.886 0 0 1 1.763-5.573 7.35 7.35 0 0 1 2.984-1.96l.572-.154a7.67 7.67 0 0 1 1.733-.277c.074 0 .147-.01.222-.01.07 0 .14.01.22.01a7.77 7.77 0 0 1 1.73.277l.57.154a7.355 7.355 0 0 1 2.98 1.96 6.892 6.892 0 0 1 1.763 5.587z"/></g></svg>