<svg width="74" height="50" viewBox="0 0 74 50" xmlns="http://www.w3.org/2000/svg"><title>Group</title><defs><linearGradient x1="46.718%" y1="17.35%" x2="58.629%" y2="76.459%" id="a"><stop stop-color="#FFE22F" offset="0%"/><stop stop-color="#FFD30E" offset="100%"/></linearGradient></defs><g transform="translate(-998 -3506)" fill="url(#a)" fill-rule="evenodd"><path d="M1070.6 3507.58c-3.27-.968-6.69-1.438-10.45-1.438-6.23 0-12.48 1.318-18.527 2.592-5.896 1.243-11.992 2.528-17.908 2.528-3.47 0-6.61-.43-9.6-1.315a1.5 1.5 0 0 0-1.926 1.44v6.58a29.498 29.498 0 0 1-4.96-1.16 1.5 1.5 0 0 0-1.97 1.424v7.07a29.52 29.52 0 0 1-4.96-1.16 1.502 1.502 0 0 0-1.98 1.43v26.552c0 .62.383 1.18.965 1.4 4.14 1.58 8.603 2.346 13.642 2.346h.002c5.155 0 10.34-.796 15.354-1.564 4.907-.752 9.978-1.53 14.907-1.53 4.67 0 8.785.7 12.578 2.148a1.498 1.498 0 0 0 2.034-1.4v-7.337a31.37 31.37 0 0 1 4.897 1.407 1.5 1.5 0 0 0 2.034-1.4v-7.72a32.06 32.06 0 0 1 4.943 1.255 1.5 1.5 0 0 0 1.985-1.42v-29.274a1.5 1.5 0 0 0-1.074-1.44zm-15.79 43.826c-3.563-1.104-7.384-1.643-11.61-1.643-5.158 0-10.344.796-15.36 1.564-4.903.752-9.974 1.53-14.902 1.53h-.003c-4.274 0-8.083-.59-11.608-1.798v-23.49a32.54 32.54 0 0 0 3.932.76v16.443c0 .622.38 1.18.96 1.4 4.14 1.58 8.6 2.346 13.64 2.346 5.16 0 10.344-.795 15.36-1.564 4.903-.753 9.974-1.53 14.904-1.53a41 41 0 0 1 4.68.262v5.71zm6.932-7.33c-3.564-1.105-7.384-1.644-11.61-1.644-5.16 0-10.345.796-15.36 1.565-4.903.752-9.973 1.53-14.902 1.53h-.002c-4.275 0-8.085-.59-11.61-1.8v-23.487a32.54 32.54 0 0 0 3.933.768v17a1.5 1.5 0 0 0 1.02 1.42c3.88 1.33 8.03 1.978 12.67 1.978 5.478 0 10.98-.902 16.3-1.774 5.208-.853 10.59-1.734 15.82-1.734 1.294 0 2.54.06 3.75.17v6.007zm6.932-7.816c-3.307-.916-6.822-1.363-10.683-1.363-5.47 0-10.97.902-16.3 1.774-5.2.86-10.58 1.74-15.81 1.74-3.9 0-7.41-.49-10.682-1.49v-23.58c2.687.625 5.495.93 8.525.93 6.23 0 12.48-1.32 18.526-2.592 5.896-1.242 11.992-2.527 17.91-2.527 3.055 0 5.855.334 8.523 1.018v26.1z"/><path d="M1025.682 3524.895c-.982-.093-1.514-.226-1.514-.533 0-.547.984-.605 1.407-.618.714-.015 1.403.288 1.6.593l.23.36a77.956 77.956 0 0 0 2.166-1.142l-.22-.428c-.59-1.136-1.6-1.48-2.44-1.62v-1.098c-.84.04-1.68.07-2.522.07v1.08c-1.73.33-2.782 1.28-2.782 2.69 0 2.476 2.404 2.88 3.836 2.994.76.08 1.67.232 1.67.65 0 .753-1.312.833-1.575.83-.853.012-1.7-.416-1.925-.94l-.195-.454a45.7 45.7 0 0 1-2.34.813c.067.152.13.31.198.46.53 1.244 1.627 2.113 3.114 2.38v1.166c.84.015 1.68.006 2.522-.02v-1.228c1.696-.35 2.843-1.66 2.843-3.19 0-2.575-2.54-2.66-4.063-2.827z"/></g></svg>