<svg width="58" height="78" viewBox="0 0 58 78" xmlns="http://www.w3.org/2000/svg"><title>Group</title><defs><linearGradient x1="46.718%" y1="17.35%" x2="58.629%" y2="76.459%" id="a"><stop stop-color="#FFE22F" offset="0%"/><stop stop-color="#FFD30E" offset="100%"/></linearGradient></defs><g transform="translate(-715 -3152)" fill="url(#a)" fill-rule="evenodd"><path d="M751.266 3202.716c-.792-1.617-1.46-2.348-2.3-2.523-.783-.163-1.815-.004-3.243.217-4.89.754-9.82 1.1-11.667-3.584-.917-2.326-1.003-5.892 8.802-9.985.986-.41 1.318-.545 1.628-.903 1.318-1.522-.195-4.196-1.05-5.46.165-.21.403-.475.594-.69 1.333-1.486 3.812-4.255 1.59-8.09-.804-1.387-2.94-1.698-6.483-2.216-3.438-.502-8.63-1.26-9.834-3.246-4.308-7.107-10.945-12.846-11.226-13.088a1.575 1.575 0 0 0-2.052 2.39c.065.056 6.534 5.65 10.585 12.332 1.972 3.253 7.573 4.072 12.073 4.73 1.563.227 3.672.535 4.307.847.83 1.575.196 2.565-1.305 4.24-.92 1.027-2.306 2.576-1.09 4.23.582.787.943 1.51 1.123 1.994l-.072.03c-1.716.714-4.91 2.05-7.447 4.184-4.32 3.634-4.058 7.37-3.075 9.86 2.926 7.417 11.132 6.15 15.077 5.54.617-.094 1.346-.206 1.79-.24.754 1.166 2.367 5.187 2.276 8.185-.03 1.003-.258 1.75-.643 2.1-2.415 2.192-5.583 3.516-8.647 4.796-4.88 2.04-9.93 4.148-9.867 9.814.01.862.714 1.556 1.576 1.556h.017a1.576 1.576 0 0 0 1.56-1.592c-.038-3.378 2.84-4.747 7.932-6.874 3.156-1.316 6.733-2.812 9.55-5.37 1.283-1.167 2.495-3.71.992-9.22-.39-1.406-.91-2.814-1.474-3.963z"/><path d="M750.074 3185.986c.325 0 .652-.107.925-.327l13.314-10.748a1.474 1.474 0 1 0-1.85-2.294l-13.32 10.743a1.474 1.474 0 0 0 .927 2.623zm1.898 2.972a1.475 1.475 0 0 0 .598 2.888l12.735-2.642a1.473 1.473 0 1 0-.6-2.887l-12.733 2.64zm19.798 10.557l-18.495-3.877a1.475 1.475 0 0 0-.605 2.886l18.495 3.878a1.476 1.476 0 0 0 1.746-1.14 1.475 1.475 0 0 0-1.14-1.747z"/></g></svg>